<svg width="1137" height="1127" viewBox="0 0 1137 1127" fill="none" xmlns="http://www.w3.org/2000/svg">
<path d="M77.1399 898.25L568.5 214.856L1059.86 898.25H77.1399Z" stroke="#7B7B8F" stroke-opacity="0.25"/>
<path d="M341.284 367.727L568.5 284.532L795.716 367.727L889.797 568.5L795.716 769.273L568.5 852.468L341.284 769.273L247.203 568.5L341.284 367.727Z" stroke="#7B7B8F" stroke-opacity="0.25"/>
<path d="M341.284 251.727L568.5 168.532L795.716 251.727L889.797 452.5L795.716 653.273L568.5 736.468L341.284 653.273L247.203 452.5L341.284 251.727Z" stroke="#7B7B8F" stroke-opacity="0.25"/>
<path d="M341.284 83.7268L568.5 0.53246L795.716 83.7268L889.797 284.5L795.716 485.273L568.5 568.468L341.284 485.273L247.203 284.5L341.284 83.7268Z" stroke="#7B7B8F" stroke-opacity="0.25"/>
</svg>
