<svg width="926" height="485" viewBox="0 0 926 485" fill="none" xmlns="http://www.w3.org/2000/svg">
<path d="M84.31 362C82.65 360.45 80.22 359.7 76.86 359.7C75.1862 359.703 73.5149 359.83 71.86 360.08C71.8307 360.085 71.8039 360.099 71.7839 360.121C71.7639 360.142 71.7519 360.17 71.75 360.2V378.08C71.7499 378.11 71.7612 378.139 71.7815 378.161C71.8019 378.184 71.8299 378.197 71.86 378.2C73.2812 378.356 74.7103 378.429 76.14 378.42C79.72 378.42 82.52 377.5 84.26 375.77C85.1585 374.817 85.8561 373.693 86.3114 372.464C86.7666 371.236 86.9702 369.929 86.91 368.62C86.9771 367.395 86.7796 366.169 86.331 365.027C85.8824 363.885 85.1931 362.852 84.31 362V362ZM76.6 376.28C75.8483 376.298 75.0963 376.261 74.35 376.17V362C75.2143 361.843 76.0917 361.77 76.97 361.78C77.965 361.712 78.9637 361.843 79.9067 362.168C80.8498 362.493 81.718 363.004 82.46 363.67C83.0728 364.343 83.5437 365.133 83.8443 365.992C84.145 366.851 84.2694 367.762 84.21 368.67C84.21 373.57 81.5 376.26 76.6 376.26V376.28Z" fill="white"/>
<path d="M122.78 376.15V378.15C122.781 378.167 122.779 378.183 122.774 378.199C122.768 378.215 122.76 378.229 122.749 378.241C122.737 378.254 122.724 378.263 122.708 378.27C122.693 378.277 122.677 378.28 122.66 378.28H112.44C112.423 378.28 112.407 378.277 112.392 378.27C112.376 378.263 112.363 378.254 112.351 378.241C112.34 378.229 112.331 378.215 112.326 378.199C112.321 378.183 112.319 378.167 112.32 378.15V359.94C112.32 359.908 112.333 359.878 112.355 359.855C112.378 359.833 112.408 359.82 112.44 359.82H122.25C122.267 359.819 122.283 359.821 122.299 359.826C122.315 359.832 122.329 359.84 122.341 359.851C122.354 359.863 122.363 359.876 122.37 359.892C122.377 359.907 122.38 359.923 122.38 359.94V361.94C122.38 361.974 122.366 362.008 122.342 362.032C122.318 362.056 122.284 362.07 122.25 362.07H114.91V367.56H121.85C121.867 367.559 121.883 367.561 121.899 367.566C121.915 367.571 121.929 367.58 121.941 367.591C121.954 367.603 121.963 367.616 121.97 367.632C121.977 367.647 121.98 367.663 121.98 367.68V369.62C121.98 369.654 121.966 369.688 121.942 369.712C121.918 369.736 121.884 369.75 121.85 369.75H114.91V376H122.66C122.679 375.999 122.697 376.003 122.714 376.011C122.731 376.019 122.746 376.03 122.758 376.045C122.769 376.06 122.777 376.077 122.781 376.095C122.785 376.113 122.785 376.132 122.78 376.15Z" fill="white"/>
<path d="M160.77 375.63L161.25 377.49C161.26 377.517 161.259 377.546 161.248 377.572C161.237 377.598 161.216 377.619 161.19 377.63C159.652 378.268 157.994 378.569 156.33 378.51C150.8 378.51 147.23 374.85 147.23 369.19C147.23 363.53 151.09 359.52 156.85 359.52C158.35 359.453 159.846 359.734 161.22 360.34C161.245 360.355 161.265 360.377 161.276 360.405C161.287 360.432 161.288 360.462 161.28 360.49L160.71 362.4C160.707 362.419 160.699 362.436 160.686 362.45C160.674 362.464 160.658 362.475 160.64 362.48C160.625 362.49 160.608 362.495 160.59 362.495C160.572 362.495 160.555 362.49 160.54 362.48C159.406 361.971 158.173 361.718 156.93 361.74C152.63 361.74 149.93 364.56 149.93 369.11C149.93 373.66 152.49 376.29 156.79 376.29C158.085 376.31 159.369 376.058 160.56 375.55C160.577 375.54 160.596 375.535 160.615 375.535C160.634 375.535 160.653 375.54 160.67 375.55C160.693 375.551 160.715 375.56 160.733 375.574C160.751 375.588 160.764 375.608 160.77 375.63V375.63Z" fill="white"/>
<path d="M197.14 376.15V378.15C197.141 378.167 197.139 378.183 197.134 378.199C197.129 378.215 197.12 378.229 197.109 378.241C197.097 378.254 197.084 378.263 197.068 378.27C197.053 378.277 197.037 378.28 197.02 378.28H186.8C186.766 378.28 186.732 378.266 186.708 378.242C186.684 378.218 186.67 378.184 186.67 378.15V359.94C186.67 359.923 186.673 359.907 186.68 359.892C186.687 359.876 186.696 359.863 186.709 359.851C186.721 359.84 186.735 359.832 186.751 359.826C186.767 359.821 186.783 359.819 186.8 359.82H196.61C196.627 359.819 196.643 359.821 196.659 359.826C196.675 359.832 196.689 359.84 196.701 359.851C196.714 359.863 196.723 359.876 196.73 359.892C196.737 359.907 196.74 359.923 196.74 359.94V361.94C196.74 361.974 196.726 362.008 196.702 362.032C196.678 362.056 196.645 362.07 196.61 362.07H189.27V367.56H196.21C196.242 367.56 196.272 367.573 196.295 367.595C196.317 367.618 196.33 367.648 196.33 367.68V369.62C196.331 369.637 196.329 369.653 196.324 369.669C196.319 369.685 196.31 369.699 196.299 369.711C196.287 369.724 196.274 369.733 196.258 369.74C196.243 369.747 196.227 369.75 196.21 369.75H189.27V376H197C197.02 375.996 197.041 375.997 197.061 376.003C197.08 376.009 197.098 376.02 197.112 376.036C197.126 376.051 197.136 376.069 197.141 376.089C197.146 376.109 197.146 376.13 197.14 376.15V376.15Z" fill="white"/>
<path d="M236.56 359.94V378.11C236.56 378.144 236.546 378.178 236.522 378.202C236.497 378.226 236.464 378.24 236.43 378.24H234.06C234.039 378.24 234.019 378.235 234.001 378.224C233.984 378.214 233.969 378.198 233.96 378.18L228.19 369C227.006 367.163 225.928 365.26 224.96 363.3C225.08 365.44 225.13 367.53 225.13 370.39V378.15C225.13 378.185 225.116 378.218 225.092 378.242C225.068 378.266 225.034 378.28 225 378.28H222.79C222.773 378.28 222.757 378.277 222.742 378.27C222.726 378.263 222.713 378.254 222.701 378.241C222.69 378.229 222.681 378.215 222.676 378.199C222.671 378.183 222.669 378.167 222.67 378.15V359.94C222.67 359.908 222.683 359.878 222.705 359.855C222.728 359.833 222.758 359.82 222.79 359.82H225.35C225.367 359.813 225.386 359.809 225.405 359.809C225.424 359.809 225.443 359.813 225.46 359.82L231.28 369.02C232.387 370.769 233.389 372.582 234.28 374.45C234.1 372.13 234.06 369.98 234.06 367.45V359.85C234.06 359.818 234.073 359.788 234.095 359.765C234.118 359.743 234.148 359.73 234.18 359.73H236.39C236.404 359.719 236.42 359.71 236.437 359.705C236.454 359.7 236.471 359.699 236.489 359.701C236.507 359.702 236.524 359.708 236.539 359.716C236.555 359.725 236.569 359.736 236.58 359.75C236.591 359.764 236.599 359.78 236.604 359.797C236.61 359.814 236.611 359.831 236.609 359.849C236.607 359.867 236.602 359.884 236.594 359.899C236.585 359.915 236.574 359.929 236.56 359.94V359.94Z" fill="white"/>
<path d="M274.76 359.94V361.94C274.76 361.972 274.747 362.002 274.725 362.025C274.702 362.047 274.672 362.06 274.64 362.06H269.21V378.11C269.21 378.144 269.196 378.178 269.172 378.202C269.148 378.226 269.115 378.24 269.08 378.24H266.71C266.693 378.24 266.677 378.237 266.662 378.23C266.646 378.223 266.633 378.214 266.621 378.201C266.61 378.189 266.602 378.175 266.596 378.159C266.591 378.143 266.589 378.127 266.59 378.11V362.06H261.18C261.148 362.06 261.118 362.047 261.095 362.025C261.073 362.002 261.06 361.972 261.06 361.94V359.94C261.06 359.908 261.073 359.878 261.095 359.855C261.118 359.833 261.148 359.82 261.18 359.82H274.64C274.656 359.82 274.671 359.823 274.686 359.829C274.701 359.835 274.714 359.844 274.725 359.855C274.736 359.866 274.745 359.88 274.751 359.894C274.757 359.909 274.76 359.924 274.76 359.94V359.94Z" fill="white"/>
<path d="M309.94 373.1C309.5 371.1 308.67 369.95 307.4 369.42C308.375 369.09 309.219 368.459 309.812 367.618C310.406 366.777 310.716 365.769 310.7 364.74C310.725 364.079 310.606 363.42 310.352 362.809C310.098 362.198 309.716 361.649 309.23 361.2C308.07 360.15 306.42 359.68 303.89 359.68C302.371 359.665 300.855 359.792 299.36 360.06C299.332 360.065 299.306 360.08 299.288 360.102C299.269 360.124 299.26 360.151 299.26 360.18V378.11C299.26 378.144 299.274 378.178 299.298 378.202C299.322 378.226 299.356 378.24 299.39 378.24H301.73C301.765 378.24 301.798 378.226 301.822 378.202C301.846 378.178 301.86 378.144 301.86 378.11V370.37H303.94C306.01 370.45 306.94 371.37 307.46 373.8C307.724 375.297 308.136 376.764 308.69 378.18C308.7 378.2 308.716 378.216 308.736 378.227C308.755 378.238 308.778 378.242 308.8 378.24H311.22C311.242 378.242 311.265 378.238 311.284 378.227C311.304 378.216 311.32 378.2 311.33 378.18C311.34 378.16 311.345 378.138 311.345 378.115C311.345 378.093 311.34 378.07 311.33 378.05C310.729 376.442 310.264 374.786 309.94 373.1V373.1ZM304.13 368.34H301.86V361.93C302.581 361.785 303.315 361.721 304.05 361.74C305.9 361.74 308.1 362.34 308.1 365.01C308.1 367 306.55 368.34 304.13 368.34Z" fill="white"/>
<path d="M344.37 359.9C344.36 359.876 344.343 359.856 344.322 359.842C344.301 359.828 344.276 359.82 344.25 359.82H341.42C341.394 359.82 341.369 359.828 341.348 359.842C341.327 359.856 341.31 359.876 341.3 359.9L335.13 378.07C335.12 378.089 335.115 378.109 335.115 378.13C335.115 378.151 335.12 378.171 335.13 378.19C335.162 378.202 335.198 378.202 335.23 378.19H337.66C337.687 378.189 337.713 378.18 337.734 378.164C337.756 378.148 337.772 378.126 337.78 378.1L339.64 372.47H345.9L347.82 378.1C347.825 378.126 347.838 378.149 347.859 378.165C347.879 378.182 347.904 378.19 347.93 378.19H350.44C350.456 378.197 350.473 378.201 350.49 378.201C350.507 378.201 350.524 378.197 350.54 378.19C350.55 378.171 350.555 378.151 350.555 378.13C350.555 378.109 350.55 378.089 350.54 378.07L344.37 359.9ZM345.37 370.44H340.25L341.97 365.35C342.25 364.48 342.51 363.54 342.8 362.42C343.04 363.35 343.29 364.32 343.65 365.42L345.37 370.44Z" fill="white"/>
<path d="M386.08 376.15V378.15C386.081 378.167 386.079 378.183 386.074 378.199C386.068 378.215 386.06 378.229 386.049 378.241C386.037 378.254 386.024 378.263 386.008 378.27C385.993 378.277 385.977 378.28 385.96 378.28H375.85C375.815 378.28 375.782 378.266 375.758 378.242C375.734 378.218 375.72 378.184 375.72 378.15V359.94C375.72 359.923 375.723 359.907 375.73 359.892C375.737 359.876 375.746 359.863 375.759 359.851C375.771 359.84 375.785 359.832 375.801 359.826C375.817 359.821 375.833 359.819 375.85 359.82H378.19C378.207 359.819 378.223 359.821 378.239 359.826C378.255 359.832 378.269 359.84 378.281 359.851C378.294 359.863 378.303 359.876 378.31 359.892C378.317 359.907 378.32 359.923 378.32 359.94V376H386C386.015 376.005 386.029 376.012 386.041 376.022C386.054 376.032 386.064 376.044 386.071 376.058C386.079 376.072 386.083 376.088 386.085 376.103C386.086 376.119 386.085 376.135 386.08 376.15V376.15Z" fill="white"/>
<path d="M413.77 359.94V378.11C413.771 378.127 413.769 378.143 413.764 378.159C413.758 378.175 413.75 378.189 413.739 378.201C413.727 378.214 413.714 378.223 413.698 378.23C413.683 378.237 413.667 378.24 413.65 378.24H411.3C411.283 378.24 411.267 378.237 411.252 378.23C411.236 378.223 411.223 378.214 411.211 378.201C411.2 378.189 411.191 378.175 411.186 378.159C411.181 378.143 411.179 378.127 411.18 378.11V359.94C411.18 359.908 411.193 359.878 411.215 359.855C411.238 359.833 411.268 359.82 411.3 359.82H413.65C413.682 359.82 413.712 359.833 413.735 359.855C413.757 359.878 413.77 359.908 413.77 359.94Z" fill="white"/>
<path d="M452.62 376.15V378.15C452.621 378.167 452.619 378.183 452.614 378.199C452.608 378.215 452.6 378.229 452.589 378.241C452.577 378.254 452.564 378.263 452.548 378.27C452.533 378.277 452.517 378.28 452.5 378.28H439.23C439.213 378.28 439.197 378.277 439.182 378.27C439.166 378.263 439.153 378.254 439.141 378.241C439.13 378.229 439.121 378.215 439.116 378.199C439.111 378.183 439.109 378.167 439.11 378.15V376.78C439.104 376.757 439.104 376.733 439.11 376.71L449.11 362.08H440.11C440.075 362.08 440.042 362.066 440.018 362.042C439.994 362.018 439.98 361.984 439.98 361.95V359.95C439.98 359.933 439.983 359.917 439.99 359.902C439.997 359.886 440.006 359.873 440.019 359.861C440.031 359.85 440.045 359.842 440.061 359.836C440.077 359.831 440.093 359.829 440.11 359.83H452.37C452.387 359.829 452.403 359.831 452.419 359.836C452.435 359.842 452.449 359.85 452.461 359.861C452.474 359.873 452.483 359.886 452.49 359.902C452.497 359.917 452.5 359.933 452.5 359.95V361.38C452.506 361.403 452.506 361.427 452.5 361.45L442.5 376.03H452.5C452.532 376.03 452.562 376.043 452.585 376.065C452.607 376.088 452.62 376.118 452.62 376.15V376.15Z" fill="white"/>
<path d="M526.54 362C524.88 360.45 522.44 359.7 519.09 359.7C517.416 359.703 515.745 359.83 514.09 360.08C514.062 360.085 514.036 360.1 514.018 360.122C513.999 360.144 513.99 360.171 513.99 360.2V378.08C513.989 378.095 513.99 378.111 513.995 378.125C514 378.14 514.008 378.153 514.018 378.164C514.029 378.176 514.041 378.185 514.055 378.191C514.069 378.197 514.085 378.2 514.1 378.2C515.518 378.356 516.944 378.43 518.37 378.42C521.95 378.42 524.76 377.5 526.49 375.77C527.392 374.819 528.093 373.695 528.55 372.467C529.007 371.238 529.211 369.93 529.15 368.62C529.213 367.394 529.013 366.169 528.563 365.027C528.112 363.885 527.423 362.853 526.54 362ZM518.82 376.28C518.068 376.298 517.316 376.261 516.57 376.17V362C517.438 361.843 518.318 361.769 519.2 361.78C520.193 361.713 521.189 361.844 522.13 362.167C523.071 362.49 523.938 362.997 524.68 363.66C525.295 364.332 525.767 365.121 526.068 365.981C526.368 366.84 526.492 367.752 526.43 368.66C526.43 373.57 523.73 376.26 518.82 376.26V376.28Z" fill="white"/>
<path d="M488.45 376.15V378.15C488.451 378.167 488.449 378.183 488.444 378.199C488.439 378.215 488.43 378.229 488.419 378.241C488.407 378.254 488.394 378.263 488.378 378.27C488.363 378.277 488.347 378.28 488.33 378.28H478.11C478.076 378.28 478.042 378.266 478.018 378.242C477.994 378.218 477.98 378.184 477.98 378.15V359.94C477.98 359.923 477.983 359.907 477.99 359.892C477.997 359.876 478.006 359.863 478.019 359.851C478.031 359.84 478.045 359.832 478.061 359.826C478.077 359.821 478.093 359.819 478.11 359.82H487.92C487.937 359.819 487.953 359.821 487.969 359.826C487.985 359.832 487.999 359.84 488.011 359.851C488.024 359.863 488.033 359.876 488.04 359.892C488.047 359.907 488.05 359.923 488.05 359.94V361.94C488.05 361.974 488.036 362.008 488.012 362.032C487.988 362.056 487.954 362.07 487.92 362.07H480.58V367.56H487.52C487.552 367.56 487.582 367.573 487.605 367.595C487.627 367.618 487.64 367.648 487.64 367.68V369.62C487.641 369.637 487.639 369.653 487.634 369.669C487.629 369.685 487.62 369.699 487.609 369.711C487.597 369.724 487.584 369.733 487.568 369.74C487.553 369.747 487.537 369.75 487.52 369.75H480.58V376H488.33C488.349 375.999 488.367 376.003 488.384 376.011C488.401 376.019 488.416 376.03 488.428 376.045C488.439 376.06 488.447 376.077 488.451 376.095C488.455 376.113 488.455 376.132 488.45 376.15V376.15Z" fill="white"/>
<path d="M591 359.9C590.991 359.875 590.975 359.854 590.953 359.84C590.932 359.826 590.906 359.819 590.88 359.82H588C587.974 359.82 587.949 359.828 587.928 359.842C587.907 359.856 587.89 359.876 587.88 359.9L581.71 378.07C581.7 378.089 581.695 378.109 581.695 378.13C581.695 378.151 581.7 378.171 581.71 378.19C581.726 378.197 581.743 378.201 581.76 378.201C581.777 378.201 581.794 378.197 581.81 378.19H584.23C584.258 378.193 584.285 378.185 584.308 378.169C584.33 378.152 584.345 378.127 584.35 378.1L586.21 372.47H592.48L594.39 378.1C594.395 378.127 594.41 378.152 594.432 378.169C594.455 378.185 594.482 378.193 594.51 378.19H597C597.036 378.203 597.074 378.203 597.11 378.19C597.12 378.171 597.125 378.151 597.125 378.13C597.125 378.109 597.12 378.089 597.11 378.07L591 359.9ZM589.4 362.42C589.64 363.35 589.89 364.32 590.25 365.42L591.97 370.49H586.8L588.53 365.4C588.8 364.47 589.07 363.54 589.35 362.42H589.4Z" fill="white"/>
<path d="M633 373.1C632.55 371.1 631.72 369.95 630.46 369.42C631.435 369.09 632.279 368.459 632.872 367.618C633.466 366.777 633.776 365.769 633.76 364.74C633.782 364.079 633.662 363.421 633.408 362.811C633.155 362.2 632.774 361.651 632.29 361.2C631.13 360.15 629.48 359.68 626.94 359.68C625.425 359.665 623.911 359.792 622.42 360.06C622.392 360.065 622.366 360.08 622.348 360.102C622.329 360.124 622.32 360.151 622.32 360.18V378.11C622.319 378.127 622.321 378.143 622.326 378.159C622.332 378.175 622.34 378.189 622.351 378.201C622.363 378.214 622.376 378.223 622.392 378.23C622.407 378.237 622.423 378.24 622.44 378.24H624.79C624.807 378.24 624.823 378.237 624.838 378.23C624.854 378.223 624.867 378.214 624.879 378.201C624.89 378.189 624.899 378.175 624.904 378.159C624.909 378.143 624.911 378.127 624.91 378.11V370.37H627C629.07 370.45 630 371.37 630.53 373.8C630.786 375.298 631.194 376.766 631.75 378.18C631.762 378.198 631.778 378.214 631.797 378.224C631.817 378.235 631.838 378.24 631.86 378.24H634.29C634.312 378.239 634.333 378.233 634.352 378.223C634.371 378.213 634.388 378.198 634.4 378.18C634.41 378.16 634.415 378.138 634.415 378.115C634.415 378.093 634.41 378.07 634.4 378.05C633.782 376.447 633.313 374.79 633 373.1V373.1ZM627.19 368.34H624.9V361.93C625.621 361.785 626.355 361.722 627.09 361.74C628.94 361.74 631.15 362.34 631.15 365.01C631.15 367 629.59 368.34 627.18 368.34H627.19Z" fill="white"/>
<path d="M671.17 359.94V361.94C671.17 361.957 671.167 361.973 671.16 361.988C671.153 362.004 671.144 362.017 671.131 362.029C671.119 362.04 671.105 362.048 671.089 362.054C671.073 362.059 671.056 362.061 671.04 362.06H665.61V378.11C665.611 378.127 665.609 378.143 665.604 378.159C665.598 378.175 665.59 378.189 665.579 378.201C665.567 378.214 665.554 378.223 665.538 378.23C665.523 378.237 665.507 378.24 665.49 378.24H663.11C663.093 378.24 663.077 378.237 663.062 378.23C663.046 378.223 663.033 378.214 663.021 378.201C663.01 378.189 663.001 378.175 662.996 378.159C662.991 378.143 662.989 378.127 662.99 378.11V362.06H657.59C657.573 362.061 657.557 362.059 657.541 362.054C657.525 362.048 657.511 362.04 657.499 362.029C657.486 362.017 657.477 362.004 657.47 361.988C657.463 361.973 657.46 361.957 657.46 361.94V359.94C657.46 359.923 657.463 359.907 657.47 359.892C657.477 359.876 657.486 359.863 657.499 359.851C657.511 359.84 657.525 359.832 657.541 359.826C657.557 359.821 657.573 359.819 657.59 359.82H671C671.019 359.811 671.04 359.807 671.061 359.809C671.082 359.811 671.102 359.819 671.12 359.831C671.137 359.843 671.151 359.859 671.159 359.879C671.168 359.898 671.172 359.919 671.17 359.94V359.94Z" fill="white"/>
<path d="M736.36 376.15V378.15C736.36 378.185 736.346 378.218 736.322 378.242C736.297 378.266 736.264 378.28 736.23 378.28H723C722.965 378.28 722.932 378.266 722.908 378.242C722.884 378.218 722.87 378.185 722.87 378.15V376.78C722.864 376.757 722.864 376.733 722.87 376.71L732.87 362.08H723.87C723.853 362.08 723.837 362.077 723.822 362.07C723.806 362.063 723.793 362.054 723.781 362.041C723.77 362.029 723.761 362.015 723.756 361.999C723.751 361.983 723.749 361.967 723.75 361.95V359.95C723.75 359.918 723.763 359.888 723.785 359.865C723.808 359.843 723.838 359.83 723.87 359.83H736.1C736.132 359.83 736.162 359.843 736.185 359.865C736.207 359.888 736.22 359.918 736.22 359.95V361.38C736.225 361.391 736.228 361.403 736.228 361.415C736.228 361.427 736.225 361.439 736.22 361.45L726.22 376.03H736.22C736.237 376.029 736.254 376.031 736.27 376.036C736.287 376.041 736.302 376.05 736.315 376.061C736.328 376.072 736.339 376.086 736.346 376.101C736.354 376.116 736.359 376.133 736.36 376.15V376.15Z" fill="white"/>
<path d="M769.21 359.52C764.16 359.52 760.64 363.52 760.64 369.19C760.64 374.69 764.05 378.54 768.94 378.54C773.2 378.54 777.5 375.54 777.5 368.84C777.5 363.27 774.17 359.52 769.21 359.52ZM769.1 361.68C772.99 361.68 774.77 365.45 774.77 368.95C774.77 372.64 773.01 376.37 769.07 376.37C765.35 376.37 763.4 372.73 763.4 369.14C763.4 365.55 765.16 361.68 769.1 361.68Z" fill="white"/>
<path d="M816.92 359.94V378.11C816.92 378.144 816.906 378.178 816.882 378.202C816.858 378.226 816.824 378.24 816.79 378.24H814.42C814.398 378.239 814.377 378.233 814.358 378.223C814.339 378.213 814.322 378.198 814.31 378.18L808.54 369C807.36 367.162 806.285 365.259 805.32 363.3C805.44 365.43 805.49 367.52 805.49 370.39V378.15C805.49 378.185 805.476 378.218 805.452 378.242C805.428 378.266 805.394 378.28 805.36 378.28H803.15C803.116 378.28 803.082 378.266 803.058 378.242C803.034 378.218 803.02 378.185 803.02 378.15V359.94C803.02 359.923 803.023 359.907 803.03 359.892C803.037 359.876 803.046 359.863 803.059 359.851C803.071 359.84 803.085 359.832 803.101 359.826C803.117 359.821 803.133 359.819 803.15 359.82H805.71C805.746 359.807 805.784 359.807 805.82 359.82L811.64 369.02C812.745 370.77 813.747 372.583 814.64 374.45C814.46 372.14 814.42 369.98 814.42 367.45V359.85C814.42 359.818 814.433 359.788 814.455 359.765C814.478 359.743 814.508 359.73 814.54 359.73H816.75C816.778 359.707 816.813 359.697 816.849 359.701C816.885 359.704 816.917 359.722 816.94 359.75C816.963 359.778 816.973 359.813 816.969 359.849C816.966 359.885 816.948 359.917 816.92 359.94V359.94Z" fill="white"/>
<path d="M853.83 376.15V378.15C853.831 378.167 853.829 378.183 853.824 378.199C853.818 378.215 853.81 378.229 853.798 378.241C853.787 378.254 853.773 378.263 853.758 378.27C853.743 378.277 853.727 378.28 853.71 378.28H843.49C843.455 378.28 843.422 378.266 843.398 378.242C843.374 378.218 843.36 378.184 843.36 378.15V359.94C843.36 359.923 843.363 359.907 843.37 359.892C843.377 359.876 843.386 359.863 843.398 359.851C843.411 359.84 843.425 359.832 843.441 359.826C843.457 359.821 843.473 359.819 843.49 359.82H853.3C853.316 359.819 853.333 359.821 853.349 359.826C853.365 359.832 853.379 359.84 853.391 359.851C853.404 359.863 853.413 359.876 853.42 359.892C853.427 359.907 853.43 359.923 853.43 359.94V361.94C853.43 361.974 853.416 362.008 853.392 362.032C853.367 362.056 853.334 362.07 853.3 362.07H846V367.56H852.94C852.972 367.56 853.002 367.573 853.025 367.595C853.047 367.618 853.06 367.648 853.06 367.68V369.62C853.061 369.637 853.059 369.653 853.054 369.669C853.048 369.685 853.04 369.699 853.028 369.711C853.017 369.724 853.003 369.733 852.988 369.74C852.973 369.747 852.957 369.75 852.94 369.75H846V376H853.75C853.765 376.005 853.779 376.012 853.791 376.022C853.803 376.032 853.814 376.044 853.821 376.058C853.828 376.072 853.833 376.088 853.835 376.103C853.836 376.119 853.835 376.135 853.83 376.15Z" fill="white"/>
<path d="M255.36 201.64C255.36 255.36 218.99 299.26 173.2 302.14C189.783 274.395 199.133 242.929 200.39 210.63C202.16 169.94 191.56 131.92 172.31 101.08C218.52 103.44 255.36 147.55 255.36 201.64Z" fill="white"/>
<path d="M120.47 101.08H72.5V302.29H120.47V101.08Z" fill="white"/>
<path d="M449.46 302.27H399.84L325.22 153.39L348.83 101.25L449.46 302.27Z" fill="white"/>
<path d="M616.55 101.13H669.85L531.36 302.27H478.07L616.55 101.13Z" fill="white"/>
<path d="M312.89 302.27H257.5L281.85 248.5L312.89 302.27Z" fill="white"/>
<path d="M669.79 302.28V248.28L610.8 302.28H669.79Z" fill="white"/>
<path d="M478.77 101.08V155.08L537.76 101.08H478.77Z" fill="white"/>
<path d="M853.83 302.27V248.31L795.94 302.27H853.83Z" fill="white"/>
<path d="M853.83 101.08V155.03L795.94 101.08H853.83Z" fill="white"/>
<path d="M779.04 199.88L820.15 237.52V157.55L779.04 199.88Z" fill="white"/>
<path d="M751.71 101.08H703.74V302.29H751.71V101.08Z" fill="white"/>
</svg>
