<svg width="847" height="273" viewBox="0 0 847 273" fill="none" xmlns="http://www.w3.org/2000/svg">
<g clip-path="url(#clip0_108_2)">
<path d="M220.36 140.64C220.36 194.36 183.99 238.26 138.2 241.14C154.783 213.395 164.133 181.929 165.39 149.63C167.16 108.94 156.56 70.92 137.31 40.08C183.52 42.44 220.36 86.55 220.36 140.64Z" fill="white"/>
<path d="M85.47 40.08H37.5V241.29H85.47V40.08Z" fill="white"/>
<path d="M414.46 241.27H364.84L290.22 92.39L313.83 40.25L414.46 241.27Z" fill="white"/>
<path d="M581.55 40.13H634.85L496.36 241.27H443.07L581.55 40.13Z" fill="white"/>
<path d="M277.89 241.27H222.5L246.85 187.5L277.89 241.27Z" fill="white"/>
<path d="M634.79 241.28V187.28L575.8 241.28H634.79Z" fill="white"/>
<path d="M443.77 40.08V94.08L502.76 40.08H443.77Z" fill="white"/>
<path d="M818.83 241.27V187.31L760.94 241.27H818.83Z" fill="white"/>
<path d="M818.83 40.08V94.03L760.94 40.08H818.83Z" fill="white"/>
<path d="M744.04 138.88L785.15 176.52V96.55L744.04 138.88Z" fill="white"/>
<path d="M716.71 40.08H668.74V241.29H716.71V40.08Z" fill="white"/>
</g>
<defs>
<clipPath id="clip0_108_2">
<rect width="847" height="273" fill="white"/>
</clipPath>
</defs>
</svg>
